<?xml version="1.0" encoding="iso-8859-1"?>
<!-- Generator: Adobe Illustrator 19.0.0, SVG Export Plug-In . SVG Version: 6.00 Build 0)  -->
<svg version="1.1" id="Capa_1" xmlns="http://www.w3.org/2000/svg" xmlns:xlink="http://www.w3.org/1999/xlink" x="0px" y="0px"
	 viewBox="0 0 511.994 511.994" style="enable-background:new 0 0 511.994 511.994;" xml:space="preserve">
<g>
	<g transform="translate(1 3)">
		<path style="fill:#E3E7F2;" d="M255.04,107.933c0,0,0-85.333,93.867-85.333c3.217,25.231-4.943,50.587-22.272,69.205
			L255.04,107.933z"/>
		<path style="fill:#A4C2F7;" d="M382.698,317c-9.951,18.575-24.493,34.292-42.24,45.653c-15.466,8.524-33.361,11.562-50.773,8.619
			c-4.31-0.74-8.559-1.795-12.715-3.157c-8.121-2.653-15.593-6.985-21.931-12.715c-3.83,3.52-8.139,6.479-12.8,8.789
			c-2.925,1.569-5.98,2.882-9.131,3.925c-12.34,4.077-25.473,5.159-38.315,3.157c-8.852-1.29-17.388-4.213-25.173-8.619
			c-17.747-11.362-32.289-27.079-42.24-45.653c-32.512-55.04-53.76-134.571-7.083-188.16c16.445-19.491,39.165-32.646,64.256-37.205
			h0.085c3.532-0.513,7.097-0.77,10.667-0.768c16.116-0.435,32.133,2.652,46.933,9.045c4.668,1.973,8.989,4.681,12.8,8.021
			c0,0,13.056-13.056,44.8-16.299h0.085c4.931-0.529,9.888-0.785,14.848-0.768c28.672,0,56.661,16.896,75.008,37.973
			C436.458,182.429,415.21,261.96,382.698,317z"/>
		<path style="fill:#E3E7F2;" d="M357.098,317c-9.951,18.575-24.493,34.292-42.24,45.653c-7.785,4.406-16.321,7.328-25.173,8.619
			c-4.31-0.74-8.559-1.795-12.715-3.157c-8.121-2.653-15.593-6.985-21.931-12.715c-3.83,3.52-8.139,6.479-12.8,8.789
			c-4.693-2.304-43.093,6.315-47.445,7.083c-8.852-1.29-17.388-4.213-25.173-8.619c-17.747-11.362-32.289-27.079-42.24-45.653
			c-32.512-55.04-53.76-134.571-7.083-188.16c16.445-19.491,39.165-32.646,64.256-37.205h0.085
			c31.744,3.243,48.725,12.373,57.6,8.277c14.8-6.393,30.817-9.48,46.933-9.045c3.569-0.002,7.134,0.255,10.667,0.768h0.085
			c25.091,4.56,47.811,17.715,64.256,37.205C410.858,182.429,389.61,261.96,357.098,317z"/>
		<g>
			<path style="fill:#FFFFFF;" d="M169.621,362.653c7.785,4.406,16.321,7.328,25.173,8.619c8.304,1.261,16.753,1.223,25.045-0.111
				c-8.657-1.322-17-4.214-24.619-8.533c-17.747-11.362-32.289-27.079-42.24-45.653c-32.512-55.04-53.76-134.571-7.083-188.16
				c16.445-19.491,39.165-32.646,64.256-37.205h0.145c-4.982-0.506-9.986-0.754-14.993-0.742c-3.569-0.002-7.134,0.255-10.667,0.768
				h-0.085c-25.091,4.56-47.811,17.715-64.256,37.205C73.621,182.429,94.869,261.96,127.381,317
				C137.332,335.575,151.874,351.292,169.621,362.653z"/>
			<path style="fill:#FFFFFF;" d="M349.094,25.049c-0.094-0.828-0.068-1.596-0.188-2.449c-70.656,0-88.124,48.341-92.442,72.252
				c-0.478,0.128-0.853,0.282-1.323,0.41c4.348,1.216,8.593,2.771,12.698,4.651c4.587-2.093,9.347-3.786,14.225-5.06
				C286.992,59.552,314.023,31.403,349.094,25.049z"/>
		</g>
	</g>
	<g>
		<path style="fill:#FFFFFF;" d="M121.025,324.352c-20.111-32.868-32.134-70.039-35.081-108.459
			c-0.823-15.994,1.09-32.01,5.658-47.36c4.767-15.53,12.686-29.909,23.262-42.24l12.877,11.204
			c-17.983,21.709-26.853,49.542-24.747,77.653c2.84,35.614,14.053,70.054,32.725,100.514L121.025,324.352z"/>
		<g>
			<path style="fill:#428DFF;" d="M109.864,258.398c0.416-3.321-1.206-6.567-4.113-8.226c-0.99-0.519-2.06-0.868-3.166-1.033
				c-3.408-0.588-6.826,0.987-8.593,3.959c-1.078,2.049-1.346,4.428-0.751,6.665c0.616,2.232,2.072,4.14,4.062,5.325l1.553,0.623
				c0.555,0.166,1.128,0.261,1.707,0.282c0.54,0.081,1.09,0.081,1.63,0c0.577-0.076,1.147-0.192,1.707-0.35
				c2.124-0.708,3.909-2.18,5.009-4.13C109.397,260.535,109.72,259.482,109.864,258.398z"/>
			<path style="fill:#428DFF;" d="M391.054,324.343c34.918-59.068,54.869-142.123,6.161-198.084
				c-14.596-17.05-33.629-29.724-54.989-36.617c13.513-18.893,19.284-42.241,16.128-65.254c-0.603-4.202-4.203-7.322-8.448-7.322
				c-55.97,0-81.348,28.399-92.851,53.965C247.984,39.322,228.52,0,187.773,0c-4.713,0-8.533,3.821-8.533,8.533
				s3.821,8.533,8.533,8.533c37.436,0,52.053,50.074,57.173,77.346c-15.411-6.359-31.973-9.45-48.64-9.079
				c-31.723,1.504-61.32,16.389-81.442,40.96c-10.573,12.325-18.489,26.699-23.253,42.223c-4.568,15.35-6.481,31.366-5.658,47.36
				l0.606,8.96c0.223,2.3,1.37,4.411,3.178,5.851c1.808,1.439,4.122,2.084,6.414,1.787c4.537-0.644,7.783-4.718,7.398-9.284
				l-0.546-8.073c-2.107-28.111,6.763-55.945,24.747-77.653c16.98-20.715,41.822-33.421,68.557-35.063
				c37.965,0,53.615,14.507,53.7,14.566c0.085,0.06,0.102,0.06,0.154,0.102c0.686,0.633,1.47,1.152,2.321,1.536
				c0.119,0.051,0.213,0.162,0.333,0.205c1.022,0.428,2.118,0.651,3.226,0.657h0.358c0.669-0.072,1.325-0.23,1.954-0.469
				c0.314-0.056,0.625-0.13,0.93-0.222c0.706-0.322,1.364-0.742,1.954-1.246c0.266-0.146,0.522-0.308,0.768-0.486
				c0.154-0.137,15.804-14.643,53.769-14.643c26.739,1.643,51.585,14.352,68.565,35.072c42.752,49.101,23.893,124.237-7.97,178.193
				c-7.007,12.442-15.938,23.697-26.462,33.348V332.8c0-4.713-3.82-8.533-8.533-8.533s-8.533,3.82-8.533,8.533v27.631
				c-16.452,7.34-35.056,8.253-52.147,2.56c-6.985-2.235-13.41-5.942-18.842-10.871c-3.275-3.046-8.347-3.046-11.622,0
				c-5.431,4.929-11.856,8.636-18.842,10.871c-17.091,5.694-35.696,4.781-52.147-2.56V332.8c0-4.713-3.821-8.533-8.533-8.533
				s-8.533,3.82-8.533,8.533v16.213c-10.521-9.655-19.449-20.913-26.453-33.357c-5.57-9.52-10.576-19.359-14.993-29.466
				c-1.926-4.197-6.793-6.163-11.093-4.48c-2.135,0.85-3.83,2.535-4.692,4.665c-0.862,2.13-0.816,4.52,0.127,6.616
				c4.696,10.755,10.021,21.223,15.949,31.351c9.968,18.335,24.057,34.107,41.156,46.071v61.252l-11.034-11.034
				c-3.348-3.234-8.671-3.188-11.962,0.104c-3.292,3.292-3.338,8.614-0.104,11.962l25.6,25.6c2.436,2.431,6.093,3.161,9.276,1.852
				c0.927-0.418,1.773-0.996,2.5-1.707c0.077-0.077,0.188-0.102,0.265-0.179l25.6-25.6c3.234-3.348,3.188-8.671-0.104-11.962
				c-3.292-3.292-8.614-3.338-11.962-0.104l-11.008,11.068v-52.907c9.378,3.294,19.244,4.984,29.184,5.001
				c9.64,0.02,19.221-1.513,28.373-4.54c6.878-2.258,13.368-5.559,19.243-9.788c5.874,4.221,12.361,7.517,19.234,9.771
				c18.723,6.13,38.934,5.983,57.566-0.418v52.907l-11.034-11.034c-3.348-3.234-8.671-3.188-11.962,0.104
				c-3.292,3.292-3.338,8.614-0.104,11.962l25.6,25.6c2.436,2.431,6.093,3.161,9.276,1.852c0.927-0.418,1.773-0.996,2.5-1.707
				c0.077-0.077,0.188-0.102,0.265-0.179l25.6-25.6c3.234-3.348,3.188-8.671-0.104-11.962c-3.292-3.292-8.614-3.338-11.962-0.104
				l-11.008,11.042v-61.252C367.001,358.447,381.086,342.677,391.054,324.343z M323.871,85.862c-2.705-0.265-5.41-0.529-8.098-0.529
				c-16.818-0.39-33.529,2.762-49.05,9.25c4.881-21.589,21.12-57.173,75.435-60.237C342.65,53.19,336.134,71.546,323.871,85.862z"/>
			<path style="fill:#428DFF;" d="M227.803,142.925c2.556,1.663,5.806,1.836,8.524,0.454c2.718-1.382,4.493-4.11,4.655-7.155
				s-1.313-5.946-3.869-7.609c-12.462-6.852-26.612-10.024-40.806-9.148c-4.713,0-8.533,3.821-8.533,8.533
				c0,4.713,3.821,8.533,8.533,8.533C207.193,135.736,218.089,137.947,227.803,142.925z"/>
			<path style="fill:#428DFF;" d="M152.65,147.84c-1.71-1.484-3.939-2.228-6.197-2.068c-2.258,0.16-4.36,1.211-5.843,2.921
				c-36.787,42.257-19.055,109.483,9.805,158.302c1.499,2.727,4.364,4.422,7.476,4.423c3.112,0.001,5.978-1.693,7.478-4.419
				c1.5-2.726,1.398-6.053-0.268-8.682c-25.83-43.708-42.445-103.014-11.622-138.419c1.492-1.707,2.244-3.938,2.089-6.201
				C155.411,151.435,154.361,149.327,152.65,147.84z"/>
			<path style="fill:#428DFF;" d="M256.04,392.533c-4.713,0-8.533,3.82-8.533,8.533v81.801l-11.034-11.034
				c-3.348-3.234-8.671-3.188-11.962,0.104c-3.292,3.292-3.338,8.614-0.104,11.962l25.6,25.6c2.436,2.431,6.093,3.161,9.276,1.852
				c0.927-0.418,1.773-0.996,2.5-1.707c0.077-0.077,0.188-0.102,0.265-0.179l25.6-25.6c3.234-3.348,3.188-8.671-0.104-11.962
				s-8.614-3.338-11.962-0.104l-11.008,11.068v-81.801C264.573,396.354,260.752,392.533,256.04,392.533z"/>
		</g>
	</g>
</g>
<g>
</g>
<g>
</g>
<g>
</g>
<g>
</g>
<g>
</g>
<g>
</g>
<g>
</g>
<g>
</g>
<g>
</g>
<g>
</g>
<g>
</g>
<g>
</g>
<g>
</g>
<g>
</g>
<g>
</g>
</svg>
