<svg version="1.1" xmlns="http://www.w3.org/2000/svg" xmlns:xlink="http://www.w3.org/1999/xlink" width="48" height="48"><defs><linearGradient x1="9.82523" y1="9.82525" x2="38.84973" y2="38.84972" gradientUnits="userSpaceOnUse" id="color-1"><stop offset="0.59" stop-color="#000000" stop-opacity="0.86"></stop><stop offset="1" stop-color="#000000" stop-opacity="0"></stop></linearGradient><filter id="dropshadow-base"><feColorMatrix type="matrix" values="0 0 0 0 0  0 0 0 0 0  0 0 0 0 0  0 0 0 .8 0"></feColorMatrix> <feOffset dx="0" dy="1"></feOffset> <feGaussianBlur stdDeviation="1"></feGaussianBlur> <feComposite in="SourceGraphic"></feComposite></filter><filter id="dropshadow-banner" x="-10%" y="-10%" width="120%" height="130%"><feColorMatrix type="matrix" values="0 0 0 0 0  0 0 0 0 0  0 0 0 0 0  0 0 0 .4 0"></feColorMatrix> <feOffset dx="0" dy="1"></feOffset> <feGaussianBlur stdDeviation="0.5"></feGaussianBlur> <feComposite in="SourceGraphic"></feComposite></filter></defs><g fill="none" fill-rule="nonzero" stroke="none" stroke-width="none" stroke-linecap="butt" stroke-linejoin="miter" stroke-miterlimit="10" stroke-dasharray="" stroke-dashoffset="0" font-family="none" font-weight="none" font-size="none" text-anchor="none" style="mix-blend-mode: normal"><path d="M7,43c-1.10457,0 -2,-0.89543 -2,-2v-34c0,-1.10457 0.89543,-2 2,-2h34c1.10457,0 2,0.89543 2,2v34c0,1.10457 -0.89543,2 -2,2z" id="base 1 5" fill-opacity="0.85" fill="#603eb3" stroke-width="1"></path><path d="M36.85834,31.92318c-0.24646,0.41423 -0.51433,0.81522 -0.8007,1.20053c-0.51426,0.69174 -1.09001,1.33499 -1.71936,1.92159c-1.02152,0.95237 -2.18391,1.75556 -3.4525,2.37487c-0.22495,0.10993 -0.45327,0.21397 -0.68473,0.31193c-0.19743,0.08365 -0.39715,0.16295 -0.59903,0.23778c-1.0088,0.37421 -2.07229,0.6365 -3.17509,0.77226c-0.57402,0.07116 -1.15896,0.10759 -1.75197,0.10759c-1.28846,0 -2.5364,-0.17181 -3.72248,-0.49406c-2.41838,-0.65625 -4.57984,-1.93658 -6.30082,-3.65756l-0.67497,-0.67497c-0.88111,-0.88111 -1.64675,-1.87772 -2.2723,-2.96521c-1.07263,-1.86531 -1.73336,-3.99789 -1.85718,-6.27283c-0.01507,-0.25974 -0.02199,-0.52186 -0.02199,-0.7851c0,-0.68908 0.04917,-1.36714 0.14463,-2.03015c0.48921,-3.4114 2.19298,-6.43055 4.65917,-8.60526v-0.02157h0.02452c0.3615,-0.3173 0.73928,-0.6165 1.13194,-0.8962v-0.8118c0,-0.3042 0.24657,-0.55076 0.55076,-0.55076h0.97562v-0.70819c0,-0.3042 0.24657,-0.55076 0.55076,-0.55076h0.744v-0.00006h0.46283l0.00006,0.00006h0.74434c0.1521,0 0.28979,0.06164 0.38946,0.16131l0.2787,0.2787c0.44077,-0.11256 0.88981,-0.20447 1.34603,-0.27462l0.00023,0.00023c0.00008,-0.00003 0.00018,-0.0001 0.00032,-0.00023c0.70819,-0.10875 1.43254,-0.16545 2.17135,-0.16545c2.42072,0 4.69966,0.60691 6.69281,1.67666c0.49833,0.26736 0.9788,0.56366 1.43918,0.88665v-2.01249c0,-0.3042 0.24657,-0.55076 0.55076,-0.55076h0.74434v-0.00006h0.46283l0.00006,0.00006h0.744c0.1521,0 0.28979,0.06164 0.38945,0.16131l0.67497,0.67497c0.09967,0.09967 0.16131,0.23736 0.16131,0.38945v0.03322h0.30071c0.1521,0 0.28979,0.06164 0.38945,0.16131l0.67497,0.67497c0.09967,0.09967 0.16131,0.23736 0.16131,0.38945v1.03303h0.57624l0.67497,0.67497v0.86782h-1.25121v1.70806c0,0.3042 -0.24657,0.55076 -0.55076,0.55076h-0.1492c1.05754,1.68313 1.77095,3.60453 2.04148,5.66503c0.01569,0.1191 0.02989,0.23866 0.04261,0.35866c0.05191,0.23811 0.07925,0.48539 0.07925,0.73904c0,0.08455 -0.00309,0.16827 -0.00911,0.25115c0.00617,0.17136 0.00928,0.3435 0.00928,0.51637l0.00007,0.00007c0,0.94826 -0.09313,1.87456 -0.27077,2.77073c-0.31821,1.60668 -0.90835,3.11612 -1.72063,4.47751zM38.1747,23.99999c0,-0.1729 -0.00312,-0.34507 -0.00928,-0.51646c0.00602,-0.08288 0.00911,-0.1666 0.00911,-0.25115c0,-0.25366 -0.02734,-0.50094 -0.07925,-0.73904c-0.01271,-0.12 -0.02692,-0.23957 -0.04261,-0.35866c-0.27053,-2.0605 -0.98394,-3.9819 -2.04148,-5.66503h0.1492c0.30419,0 0.55076,-0.24656 0.55076,-0.55076v-1.70806h1.25121v-0.19285h-0.57624l-0.67497,-0.67497v-1.58379h-0.85147l-0.67497,-0.67497l0,-0.58398h-0.61985l-0.00006,-0.00006h-0.46278v0.00006h-0.74434c-0.30419,0 -0.55076,0.24656 -0.55076,0.55076v2.01249c-0.46038,-0.32299 -0.94085,-0.61928 -1.43918,-0.88665c-1.99316,-1.06975 -4.27209,-1.67666 -6.69281,-1.67666c-0.7388,0 -1.46316,0.0567 -2.17135,0.16545c-0.00028,0.00028 -0.00041,0.00028 -0.00048,0.00021l-0.00019,-0.00019c-0.49868,0.07668 -0.98879,0.17936 -1.4689,0.3066l-0.46642,-0.46642c-0.02572,-0.00368 -0.05202,-0.00559 -0.07876,-0.00559h-0.7444l-0.00006,-0.00006h-0.46278v0.00006h-0.744c-0.30419,0 -0.55076,0.24656 -0.55076,0.55076v0.70819h-0.97562c-0.30419,0 -0.55076,0.24656 -0.55076,0.55076v0.8118c-0.39266,0.2797 -0.77044,0.5789 -1.13194,0.8962h-0.02452v0.02157c-2.4662,2.17471 -4.16996,5.19386 -4.65917,8.60526c-0.09545,0.66301 -0.14463,1.34107 -0.14463,2.03015c0,0.26324 0.00692,0.52536 0.02199,0.7851c0.12382,2.27494 0.78454,4.40751 1.85718,6.27283c0.54567,0.94863 1.19794,1.8281 1.94046,2.62208c1.66156,1.55389 3.69742,2.71239 5.95769,3.32573c1.18607,0.32225 2.43402,0.49406 3.72248,0.49406c0.59302,0 1.17795,-0.03643 1.75197,-0.10759c1.1028,-0.13575 2.16629,-0.39804 3.17509,-0.77226c0.20188,-0.07483 0.4016,-0.15414 0.59903,-0.23778c0.23146,-0.09796 0.45977,-0.202 0.68473,-0.31193c1.2686,-0.61931 2.43099,-1.42249 3.4525,-2.37487c0.62935,-0.58659 1.2051,-1.22984 1.71936,-1.92159c0.28637,-0.38531 0.55425,-0.7863 0.8007,-1.20053c0.81228,-1.36139 1.40242,-2.87083 1.72063,-4.47751c0.17763,-0.89614 0.27076,-1.82241 0.27077,-2.77064z" fill="url(#color-1)" stroke-width="1"></path><path transform="translate(-10.01942,-10.01942) scale(1.41748,1.41748)" d="M34,24c0,0.66898 -0.0657,1.32246 -0.19102,1.95469c-0.22449,1.13348 -0.64082,2.19836 -1.21387,3.15879c-0.17387,0.29223 -0.36285,0.57512 -0.56488,0.84695c-0.3628,0.48801 -0.76898,0.94181 -1.21297,1.35564c-0.72066,0.67188 -1.5407,1.23851 -2.43567,1.67542c-0.1587,0.07755 -0.31977,0.15095 -0.48306,0.22006c-0.13928,0.05901 -0.28018,0.11496 -0.4226,0.16775c-0.71169,0.264 -1.46196,0.44904 -2.23996,0.54481c-0.40496,0.0502 -0.81762,0.0759 -1.23598,0.0759c-0.90898,0 -1.78938,-0.12121 -2.62613,-0.34855c-2.57961,-0.7 -4.74488,-2.40652 -6.04816,-4.67223c-0.75672,-1.31594 -1.22285,-2.82043 -1.3102,-4.42535c-0.01063,-0.18324 -0.01551,-0.36816 -0.01551,-0.55387c0,-0.48613 0.03469,-0.96449 0.10203,-1.43223c0.34513,-2.40667 1.5471,-4.53662 3.28695,-6.07083v-0.01522h0.0173c0.25503,-0.22385 0.52155,-0.43493 0.79856,-0.63225v-0.57271c0,-0.21461 0.17395,-0.38855 0.38855,-0.38855l0.68828,0v-0.49961c0,-0.21461 0.17395,-0.38855 0.38855,-0.38855h0.52488v-0.00004h0.32652v0.00004h0.52516c0.19574,0 0.35766,0.14471 0.38461,0.33299c0.33873,-0.08977 0.68452,-0.16221 1.03636,-0.21631c0,0 0,0.00039 0.00039,0c0.49961,-0.07672 1.01063,-0.11672 1.53184,-0.11672c1.70777,0 3.31551,0.42816 4.72164,1.18285c0.35156,0.18862 0.69052,0.39765 1.01531,0.62551v-1.41977c0,-0.21461 0.17395,-0.38855 0.38855,-0.38855h0.52512v-0.00004h0.32652v0.00004h0.52492c0.21461,0 0.38855,0.17395 0.38855,0.38855v0.49961h0.68832c0.21461,0 0.38855,0.17395 0.38855,0.38855v1.20496h0.8827v0.61223h-0.8827v1.205c0,0.21461 -0.17395,0.38855 -0.38855,0.38855h-0.10526c0.74607,1.18741 1.24937,2.54292 1.44022,3.99656c0.01107,0.08402 0.02109,0.16837 0.03006,0.25303c0.03662,0.16798 0.05591,0.34243 0.05591,0.52138c0,0.05965 -0.00218,0.11871 -0.00643,0.17718c0.00435,0.12091 0.00655,0.24237 0.00655,0.36435z" fill="none" stroke-width="0"></path><g id="Capa_1 2" stroke-width="1"><path d="M38.17476,24c0,0.94827 -0.09313,1.87456 -0.27076,2.77072c-0.31821,1.60668 -0.90835,3.11612 -1.72063,4.47751c-0.24645,0.41422 -0.51433,0.81521 -0.80071,1.20054c-0.83315,1.12069 -1.82766,2.11409 -2.95007,2.94547c-0.0949,0.07115 -0.19092,0.14003 -0.28754,0.20769c-0.00055,0.00055 -0.00055,0.00055 -0.00055,0.00055c-0.39689,0.27884 -0.80768,0.53809 -1.23293,0.77529c-0.51666,0.28986 -1.05358,0.54789 -1.60784,0.7712c-1.11953,0.45243 -2.31076,0.76544 -3.55177,0.9182c-0.57402,0.07115 -1.15895,0.10758 -1.75197,0.10758c-1.28846,0 -2.5364,-0.17181 -3.72248,-0.49407c-3.65653,-0.99223 -6.72576,-3.41119 -8.57313,-6.62277c-1.07263,-1.86531 -1.73336,-3.99789 -1.85717,-6.27283c-0.01506,-0.25974 -0.02198,-0.52186 -0.02198,-0.78509c0,-0.68908 0.04917,-1.36714 0.14463,-2.03015c0.88288,-6.1565 5.7214,-11.03549 11.85824,-11.97917c0,0 0,0.00055 0.00055,0c0.70818,-0.10875 1.43254,-0.16545 2.17134,-0.16545c2.42073,0 4.69965,0.60691 6.69281,1.67666c1.51177,0.81112 2.85926,1.8884 3.97995,3.16994c1.79471,2.05102 3.00737,4.62501 3.37996,7.46284c0.0804,0.6104 0.12204,1.23293 0.12204,1.86531z" fill="#c69a6a"></path><g fill="#d3aa81"><path d="M38.05267,22.13469h-9.43402c-0.20598,0 -0.39224,-0.08333 -0.52707,-0.21871c-0.13538,-0.13483 -0.21871,-0.32109 -0.21871,-0.52762c0,-0.41195 0.33383,-0.74633 0.74578,-0.74633h2.26852c0.20598,0 0.39285,-0.08333 0.52762,-0.21871c0.13538,-0.13483 0.21871,-0.32109 0.21871,-0.52762c0,-0.41195 -0.33383,-0.74578 -0.74633,-0.74578h-0.63294c-0.20598,0 -0.39224,-0.08333 -0.52762,-0.21871c-0.13538,-0.13538 -0.21871,-0.3217 -0.21871,-0.52762c0,-0.41251 0.33444,-0.74633 0.74633,-0.74633h2.09615c0.20598,0 0.39285,-0.08333 0.52762,-0.21871c0.13483,-0.13538 0.21871,-0.3217 0.21871,-0.52762c0,-0.41195 -0.33444,-0.74633 -0.74633,-0.74633h-4.60187c-0.20653,0 -0.39285,-0.08333 -0.52762,-0.21871c-0.13538,-0.13483 -0.21871,-0.3217 -0.21871,-0.52762c0,-0.41195 0.33383,-0.74633 0.74633,-0.74633h6.9242c1.79471,2.05097 3.00737,4.62496 3.37996,7.46279z"></path><path d="M37.904,26.77072c-0.31821,1.60668 -0.90835,3.11612 -1.72063,4.47751h-0.97141c-0.20653,0 -0.39285,-0.08389 -0.52762,-0.21871c-0.13538,-0.13483 -0.21871,-0.3217 -0.21871,-0.52762c0,-0.41195 0.33383,-0.74633 0.74633,-0.74633h0.20714c0.20653,0 0.39285,-0.08333 0.52762,-0.21871c0.13538,-0.13483 0.21871,-0.32109 0.21871,-0.52762c0,-0.41195 -0.33383,-0.74633 -0.74633,-0.74633h-2.03424c-0.20598,0 -0.39285,-0.08333 -0.52762,-0.21871c-0.13483,-0.13483 -0.21871,-0.32109 -0.21871,-0.52762c0,-0.41195 0.33438,-0.74578 0.74633,-0.74578l4.51915,-0.00006z"></path><path d="M32.32147,34.91052c0,0.18455 -0.06655,0.35348 -0.17818,0.48366c-0.07696,0.09081 -0.1753,0.16257 -0.28754,0.20769c-0.00055,0.00055 -0.00055,0.00055 -0.00055,0.00055c-0.08621,0.03527 -0.18112,0.05437 -0.28001,0.05437h-0.20714c-0.20598,0 -0.39285,0.08333 -0.52762,0.2181c-0.12962,0.12962 -0.21174,0.30664 -0.2181,0.50276c-0.51666,0.28986 -1.05358,0.54789 -1.60784,0.7712h-5.16653c-0.20598,0 -0.39224,-0.08333 -0.52707,-0.21871c-0.13538,-0.13483 -0.21871,-0.3217 -0.21871,-0.52762c0,-0.41195 0.33383,-0.74578 0.74578,-0.74578h0.20769c0.20598,0 0.39224,-0.08389 0.52762,-0.21871c0.13538,-0.13483 0.21871,-0.3217 0.21871,-0.52762c0,-0.41251 -0.33444,-0.74633 -0.74633,-0.74633h-2.03424c-0.20598,0 -0.39224,-0.08389 -0.52762,-0.21871c-0.13538,-0.13483 -0.21871,-0.3217 -0.21871,-0.52762c0,-0.41195 0.33444,-0.74633 0.74633,-0.74633h6.28894c0.41195,0 0.74578,0.33444 0.74578,0.74633c0,0.4119 0.33444,0.74633 0.74633,0.74633h1.77273c0.20653,0 0.39285,0.08333 0.52762,0.21871c0.13532,0.13488 0.21866,0.3212 0.21866,0.52773z"></path><path d="M21.31327,19.03219v0c0,-0.41218 0.3341,-0.74628 0.74628,-0.74628h2.40484c0.41218,0 0.74628,-0.3341 0.74628,-0.74628v0c0,-0.41218 -0.3341,-0.74628 -0.74628,-0.74628h-7.08959c-0.41218,0 -0.74628,0.3341 -0.74628,0.74628v0c0,0.41218 -0.3341,0.74628 -0.74628,0.74628h-2.40478c-0.41218,0 -0.74628,0.3341 -0.74628,0.74628v0c0,0.41218 0.3341,0.74628 0.74628,0.74628h3.56573c0.41218,0 0.74628,0.3341 0.74628,0.74628v0c0,0.41218 0.3341,0.74628 0.74628,0.74628h7.08954c0.41218,0 0.74628,-0.3341 0.74628,-0.74628v0c0,-0.41218 -0.3341,-0.74628 -0.74628,-0.74628h-3.56578c-0.41212,-0.00006 -0.74622,-0.33416 -0.74622,-0.74628z"></path><path d="M30.69281,11.5019c-0.03007,0.00404 -0.06074,0.00576 -0.09197,0.00576h-5.90772c-0.41195,0 -0.74633,-0.33383 -0.74633,-0.74578v-0.00055c0,-0.41195 -0.33383,-0.74578 -0.74633,-0.74578h-1.18143c-0.06595,0 -0.12962,-0.00869 -0.19036,-0.02486c0.70818,-0.10875 1.43254,-0.16545 2.17134,-0.16545c2.42073,0 4.69965,0.60691 6.69281,1.67666z"></path><path d="M11.73507,24.03876c0,0.41251 -0.33444,0.74633 -0.74633,0.74633h-1.14151c-0.01506,-0.25974 -0.02198,-0.52186 -0.02198,-0.78509c0,-0.68908 0.04917,-1.36714 0.14463,-2.03015c0.16661,0.13654 0.27248,0.34424 0.27248,0.57685c0,0.20598 0.08389,0.39285 0.21871,0.52762c0.13483,0.13483 0.3217,0.21871 0.52762,0.21871c0.20592,0 0.39285,0.08333 0.52762,0.2181c0.13488,0.13538 0.21877,0.32165 0.21877,0.52762z"></path></g><path d="M14.62904,14.21083v-0.86782h23.33337v0.86782z" fill="#797b89"></path><g fill="#5c5e70"><path d="M21.8987,26.2431c-0.20769,0 -0.37607,-0.16838 -0.37607,-0.37607v-12.59156c0,-0.20769 0.16838,-0.37607 0.37607,-0.37607c0.20769,0 0.37607,0.16838 0.37607,0.37607v12.5915c0,0.20775 -0.16833,0.37613 -0.37607,0.37613z"></path><path d="M30.69287,26.2431c-0.20769,0 -0.37607,-0.16838 -0.37607,-0.37607v-12.59156c0,-0.20769 0.16838,-0.37607 0.37607,-0.37607c0.20769,0 0.37607,0.16838 0.37607,0.37607v12.5915c0,0.20775 -0.16838,0.37613 -0.37607,0.37613z"></path><path d="M17.31189,16.46966h-0.97562c-0.3042,0 -0.55077,-0.24656 -0.55077,-0.55077v-4.28388c0,-0.3042 0.24656,-0.55077 0.55077,-0.55077h0.97562v5.38541z"></path></g><g fill="#494b5b"><path d="M15.78545,14.72317v1.19572c0,0.3042 0.24656,0.55077 0.55077,0.55077h0.97562v-1.19572h-0.97562c-0.30415,0 -0.55077,-0.24656 -0.55077,-0.55077z"></path><path d="M16.87214,16.46949v-5.38525h0.43992v5.38525z"></path></g><path d="M18.83828,9.8253h-0.97562c-0.3042,0 -0.55077,0.24656 -0.55077,0.55077v6.80178c0,0.3042 0.24656,0.55077 0.55077,0.55077h0.97562h0.97562c0.3042,0 0.55077,-0.24656 0.55077,-0.55077v-6.80178c0,-0.3042 -0.24656,-0.55077 -0.55077,-0.55077c0,0 -0.97562,0 -0.97562,0z" fill="#5c5e70"></path><g fill="#494b5b"><path d="M19.81391,15.95433h-0.97562h-0.97562c-0.3042,0 -0.55077,-0.24656 -0.55077,-0.55077v1.77428c0,0.3042 0.24656,0.55077 0.55077,0.55077h0.97562h0.97562c0.3042,0 0.55077,-0.24656 0.55077,-0.55077v-1.77428c0.00006,0.30415 -0.24651,0.55077 -0.55077,0.55077z"></path><path d="M18.60667,17.72839v-7.90315h0.46284v7.90315z"></path></g><g fill="#797b89"><path d="M19.71867,12.44442v0c-0.19175,0 -0.34712,-0.15542 -0.34712,-0.34712v-1.34998c0,-0.19175 0.15542,-0.34712 0.34712,-0.34712v0c0.19175,0 0.34712,0.15542 0.34712,0.34712v1.34998c0,0.19169 -0.15542,0.34712 -0.34712,0.34712z"></path><path d="M18.1662,12.44442v0c-0.19175,0 -0.34712,-0.15542 -0.34712,-0.34712v-1.34998c0,-0.19175 0.15542,-0.34712 0.34712,-0.34712v0c0.19175,0 0.34712,0.15542 0.34712,0.34712v1.34998c0,0.19169 -0.15542,0.34712 -0.34712,0.34712z"></path><path d="M16.40155,13.13865v0c-0.19175,0 -0.34712,-0.15542 -0.34712,-0.34712v-1.00281c0,-0.19175 0.15542,-0.34712 0.34712,-0.34712v0c0.19175,0 0.34712,0.15542 0.34712,0.34712v1.00281c0.00006,0.19175 -0.15542,0.34712 -0.34712,0.34712z"></path></g><path d="M35.18483,16.46966h0.97562c0.3042,0 0.55077,-0.24656 0.55077,-0.55077v-4.28388c0,-0.3042 -0.24656,-0.55077 -0.55077,-0.55077h-0.97562z" fill="#5c5e70"></path><g fill="#494b5b"><path d="M36.71122,14.72317v1.19572c0,0.3042 -0.24656,0.55077 -0.55077,0.55077h-0.97562v-1.19572h0.97562c0.3042,0 0.55077,-0.24656 0.55077,-0.55077z"></path><path d="M35.18477,16.46949v-5.38525h0.43992v5.38525z"></path></g><path d="M33.65838,9.8253h0.97562c0.3042,0 0.55077,0.24656 0.55077,0.55077v6.80178c0,0.3042 -0.24656,0.55077 -0.55077,0.55077h-0.97562h-0.97562c-0.3042,0 -0.55077,-0.24656 -0.55077,-0.55077v-6.80178c0,-0.3042 0.24656,-0.55077 0.55077,-0.55077z" fill="#5c5e70"></path><g fill="#494b5b"><path d="M32.6827,15.95433h0.97562h0.97562c0.3042,0 0.55077,-0.24656 0.55077,-0.55077v1.77428c0,0.3042 -0.24656,0.55077 -0.55077,0.55077h-0.97562h-0.97562c-0.3042,0 -0.55077,-0.24656 -0.55077,-0.55077v-1.77428c0,0.30415 0.24656,0.55077 0.55077,0.55077z"></path><path d="M33.4271,17.72839v-7.90315h0.46284v7.90315z"></path></g><g fill="#797b89"><path d="M32.77805,12.44442v0c0.19175,0 0.34712,-0.15542 0.34712,-0.34712v-1.34998c0,-0.19175 -0.15542,-0.34712 -0.34712,-0.34712v0c-0.19175,0 -0.34712,0.15542 -0.34712,0.34712v1.34998c0,0.19169 0.15537,0.34712 0.34712,0.34712z"></path><path d="M34.33052,12.44442v0c0.19175,0 0.34712,-0.15542 0.34712,-0.34712v-1.34998c0,-0.19175 -0.15542,-0.34712 -0.34712,-0.34712v0c-0.19175,0 -0.34712,0.15542 -0.34712,0.34712v1.34998c-0.00006,0.19169 0.15537,0.34712 0.34712,0.34712z"></path><path d="M36.09511,13.13865v0c0.19175,0 0.34712,-0.15542 0.34712,-0.34712v-1.00281c0,-0.19175 -0.15542,-0.34712 -0.34712,-0.34712v0c-0.19175,0 -0.34712,0.15542 -0.34712,0.34712v1.00281c0,0.19175 0.15537,0.34712 0.34712,0.34712z"></path></g><path d="M32.58116,23.2324c0,0.03239 -0.00116,0.06539 -0.00404,0.09717c-0.08677,1.0692 -1.59798,1.92024 -3.44939,1.92024c-1.9075,0 -3.45344,-0.90314 -3.45344,-2.01747c0,-0.37319 0.17359,-0.72264 0.47557,-1.0223c0.60054,-0.59589 1.70906,-0.99572 2.97786,-0.99572c1.90756,0.00006 3.45344,0.9032 3.45344,2.01808z" fill="#ef4152"></path><path d="M32.58116,23.2324c0,0.03239 -0.00116,0.06539 -0.00404,0.09717c-0.60054,0.59534 -1.70906,0.99456 -2.97786,0.99456c-1.90695,0 -3.45344,-0.90314 -3.45344,-2.01747c0,-0.03239 0.00116,-0.06478 0.00404,-0.09662c0.60054,-0.59589 1.70906,-0.99572 2.97786,-0.99572c1.90756,0.00006 3.45344,0.9032 3.45344,2.01808z" fill="#ff525d"></path><path d="M26.98877,23.2324c0,0.17181 -0.01274,0.34019 -0.03704,0.50509c-0.24413,1.66742 -1.68131,2.94835 -3.417,2.94835c-1.90695,0 -3.45344,-1.54649 -3.45344,-3.45344c0,-1.73569 1.28093,-3.17282 2.94835,-3.417c0.16489,-0.02431 0.33327,-0.03704 0.50509,-0.03704c1.90756,0.00006 3.45405,1.54654 3.45405,3.45405z" fill="#ef4152"></path><path d="M26.98877,23.2324c0,0.17181 -0.01274,0.34019 -0.03704,0.50509c-0.47092,1.00148 -1.48924,1.6946 -2.6689,1.6946c-1.62805,0 -2.9478,-1.31969 -2.9478,-2.9478c0,-1.17966 0.69312,-2.19797 1.6946,-2.6689c0.16489,-0.02431 0.33327,-0.03704 0.50509,-0.03704c1.90756,0.00006 3.45405,1.54654 3.45405,3.45405z" fill="#ff525d"></path><path d="M31.26722,23.23224c0,-1.90734 1.54621,-3.45355 3.45355,-3.45355c1.90734,0 3.45355,1.54621 3.45355,3.45355c0,1.90734 -1.54621,3.45355 -3.45355,3.45355c-1.90734,0 -3.45355,-1.54621 -3.45355,-3.45355z" fill="#ef4152"></path><g fill="#ff6e7c"><path d="M24.57795,22.24117c0,-0.38344 0.31084,-0.69429 0.69429,-0.69429c0.38344,0 0.69429,0.31084 0.69429,0.69429c0,0.38344 -0.31084,0.69429 -0.69429,0.69429c-0.38344,0 -0.69429,-0.31084 -0.69429,-0.69429z"></path><path d="M24.09601,21.02679c0,-0.28791 0.2334,-0.52131 0.52131,-0.52131c0.28791,0 0.52131,0.2334 0.52131,0.52131c0,0.28791 -0.2334,0.52131 -0.52131,0.52131c-0.28791,0 -0.52131,-0.2334 -0.52131,-0.52131z"></path></g><path d="M38.17459,23.2324c0,0.17181 -0.01274,0.34019 -0.03704,0.50509c-0.47092,1.00148 -1.48924,1.6946 -2.6689,1.6946c-1.62805,0 -2.9478,-1.31969 -2.9478,-2.9478c0,-1.17966 0.69312,-2.19797 1.6946,-2.6689c0.16489,-0.02431 0.33327,-0.03704 0.50509,-0.03704c1.90756,0.00006 3.45405,1.54654 3.45405,3.45405z" fill="#ff525d"></path><g fill="#ff6e7c"><path d="M35.76389,22.24117c0,-0.38344 0.31084,-0.69429 0.69429,-0.69429c0.38344,0 0.69429,0.31084 0.69429,0.69429c0,0.38344 -0.31084,0.69429 -0.69429,0.69429c-0.38344,0 -0.69429,-0.31084 -0.69429,-0.69429z"></path><path d="M35.28195,21.02679c0,-0.28791 0.2334,-0.52131 0.52131,-0.52131c0.28791,0 0.52131,0.2334 0.52131,0.52131c0,0.28791 -0.2334,0.52131 -0.52131,0.52131c-0.28791,0 -0.52131,-0.2334 -0.52131,-0.52131z"></path><path d="M29.66935,22.51137c0,-0.25562 0.20722,-0.46284 0.46284,-0.46284c0.25562,0 0.46284,0.20722 0.46284,0.46284c0,0.25562 -0.20722,0.46284 -0.46284,0.46284c-0.25562,0 -0.46284,-0.20722 -0.46284,-0.46284z"></path></g><path d="M28.51389,27.74524c0,0.03239 -0.00116,0.06539 -0.00404,0.09717c-0.08677,1.0692 -1.59798,1.92024 -3.44939,1.92024c-1.9075,0 -3.45344,-0.90314 -3.45344,-2.01747c0,-0.37319 0.17359,-0.72264 0.47557,-1.0223c0.60054,-0.59589 1.70906,-0.99572 2.97786,-0.99572c1.9075,0.00006 3.45344,0.9032 3.45344,2.01808z" fill="#279fc9"></path><path d="M28.51389,27.74524c0,0.03239 -0.00116,0.06539 -0.00404,0.09717c-0.60054,0.59534 -1.70906,0.99456 -2.97786,0.99456c-1.90695,0 -3.45344,-0.90314 -3.45344,-2.01747c0,-0.03239 0.00116,-0.06478 0.00404,-0.09662c0.60054,-0.59589 1.70906,-0.99572 2.97786,-0.99572c1.9075,0.00006 3.45344,0.9032 3.45344,2.01808z" fill="#34abe0"></path><path d="M22.9215,27.74524c0,0.17181 -0.01274,0.34019 -0.03704,0.50509c-0.24413,1.66742 -1.68131,2.94835 -3.417,2.94835c-1.90695,0 -3.45344,-1.54649 -3.45344,-3.45344c0,-1.73569 1.28093,-3.17282 2.94835,-3.417c0.16489,-0.02431 0.33327,-0.03704 0.50509,-0.03704c1.90756,0.00006 3.45405,1.54654 3.45405,3.45405z" fill="#279fc9"></path><path d="M22.9215,27.74524c0,0.17181 -0.01274,0.34019 -0.03704,0.50509c-0.47092,1.00148 -1.48924,1.6946 -2.6689,1.6946c-1.62805,0 -2.9478,-1.31969 -2.9478,-2.9478c0,-1.17966 0.69312,-2.19797 1.6946,-2.6689c0.16489,-0.02431 0.33327,-0.03704 0.50509,-0.03704c1.90756,0.00006 3.45405,1.54654 3.45405,3.45405z" fill="#34abe0"></path><path d="M27.1999,27.74502c0,-1.90734 1.54621,-3.45355 3.45355,-3.45355c1.90734,0 3.45355,1.54621 3.45355,3.45355c0,1.90734 -1.54621,3.45355 -3.45355,3.45355c-1.90734,0 -3.45355,-1.54621 -3.45355,-3.45355z" fill="#279fc9"></path><g fill="#78caef"><path d="M20.51068,26.75395c0,-0.38344 0.31084,-0.69429 0.69429,-0.69429c0.38344,0 0.69429,0.31084 0.69429,0.69429c0,0.38344 -0.31084,0.69429 -0.69429,0.69429c-0.38344,0 -0.69429,-0.31084 -0.69429,-0.69429z"></path><path d="M20.02874,25.53957c0,-0.28791 0.2334,-0.52131 0.52131,-0.52131c0.28791,0 0.52131,0.2334 0.52131,0.52131c0,0.28791 -0.2334,0.52131 -0.52131,0.52131c-0.28791,0 -0.52131,-0.2334 -0.52131,-0.52131z"></path></g><path d="M34.10727,27.74524c0,0.17181 -0.01274,0.34019 -0.03704,0.50509c-0.47092,1.00148 -1.48924,1.6946 -2.6689,1.6946c-1.62805,0 -2.9478,-1.31969 -2.9478,-2.9478c0,-1.17966 0.69312,-2.19797 1.6946,-2.6689c0.16489,-0.02431 0.33327,-0.03704 0.50509,-0.03704c1.90756,0.00006 3.45405,1.54654 3.45405,3.45405z" fill="#34abe0"></path><g fill="#78caef"><path d="M31.69662,26.75395c0,-0.38344 0.31084,-0.69429 0.69429,-0.69429c0.38344,0 0.69429,0.31084 0.69429,0.69429c0,0.38344 -0.31084,0.69429 -0.69429,0.69429c-0.38344,0 -0.69429,-0.31084 -0.69429,-0.69429z"></path><path d="M31.21462,25.53957c0,-0.28791 0.2334,-0.52131 0.52131,-0.52131c0.28791,0 0.52131,0.2334 0.52131,0.52131c0,0.28791 -0.2334,0.52131 -0.52131,0.52131c-0.28791,0 -0.52131,-0.2334 -0.52131,-0.52131z"></path><path d="M25.60202,27.02415c0,-0.25562 0.20722,-0.46284 0.46284,-0.46284c0.25562,0 0.46284,0.20722 0.46284,0.46284c0,0.25562 -0.20722,0.46284 -0.46284,0.46284c-0.25562,0 -0.46284,-0.20722 -0.46284,-0.46284z"></path></g><path d="M21.9889,21.21017c-0.68271,-0.78277 -1.66913,-1.23116 -2.7071,-1.23116h-2.31768c-0.25343,0 -0.50392,0.02663 -0.7475,0.07868c-0.75442,0.15969 -1.44411,0.56062 -1.95961,1.15247c-0.68271,0.78221 -0.99279,1.82129 -0.85049,2.8494l0.38244,2.78401l0.17475,1.2734l0.16893,1.2254h7.98011l0.18571,-1.35208l0.15797,-1.14611l0.383,-2.78462c0.14169,-1.02811 -0.16838,-2.06719 -0.85054,-2.8494zM20.39324,26.96048l-0.04861,0.35409h-4.44334l-0.0619,-0.45071l-0.16722,-1.21327l-0.25686,-1.86703c-0.06307,-0.45476 0.06883,-0.89561 0.37026,-1.24046c0.30083,-0.34595 0.71976,-0.53632 1.17855,-0.53632h2.31774c0.45824,0 0.87712,0.19036 1.17855,0.53632c0.30083,0.34485 0.43277,0.7857 0.37026,1.24046l-0.25686,1.86703z" fill="#5c5e70"></path><g fill="#494b5b"><path d="M15.90112,27.31484h0.85586c-0.17414,0.47175 -0.30415,0.77535 -0.30415,0.77535l-2.48883,0.02685l-0.55769,-4.05747c-0.14191,-1.02822 0.16821,-2.06719 0.85049,-2.84968c0.51588,-0.59163 1.20535,-0.99245 1.95983,-1.15225c-0.20515,0.3 -0.80757,1.3873 0.74733,1.94914c-0.45863,0 -0.87734,0.19025 -1.17855,0.53615c-0.30121,0.34534 -0.43299,0.78609 -0.37037,1.24057z"></path><path d="M24.56411,31.60924c0,2.80195 -1.78835,5.18564 -4.28654,6.07145c-3.65653,-0.99223 -6.72576,-3.41119 -8.57313,-6.62277c0.14119,-1.66625 0.91704,-3.152 2.08458,-4.21422c0.54905,-0.49988 1.18547,-0.90602 1.88319,-1.19301c0.75558,-0.31129 1.58292,-0.4831 2.45079,-0.4831c0.12497,0 0.24939,0.00404 0.37259,0.01102c0.73244,0.04164 1.43193,0.20598 2.07821,0.47209c0.69717,0.28698 1.33298,0.69312 1.88264,1.19356c0.98354,0.89445 1.68885,2.08978 1.97118,3.44015c0.08959,0.4269 0.13649,0.8707 0.13649,1.32484z"></path></g><path d="M24.42751,30.2844c-0.20515,2.47876 -2.28191,4.42601 -4.81371,4.42601c-2.6684,0 -4.83099,-2.16259 -4.83099,-4.83099c0,-2.28369 1.58348,-4.19645 3.71268,-4.70098c2.93622,0.16766 5.34577,2.30163 5.93203,5.10596z" fill="#5c5e70"></path><g fill="#797b89"><path d="M20.56799,28.77601c0,-0.57643 0.46729,-1.04373 1.04373,-1.04373c0.57643,0 1.04373,0.46729 1.04373,1.04373c0,0.57643 -0.46729,1.04373 -1.04373,1.04373c-0.57643,0 -1.04373,-0.46729 -1.04373,-1.04373z"></path><path d="M19.85887,27.43433c0,-0.26351 0.21362,-0.47712 0.47712,-0.47712c0.26351,0 0.47712,0.21362 0.47712,0.47712c0,0.26351 -0.21362,0.47712 -0.47712,0.47712c-0.26351,0 -0.47712,-0.21362 -0.47712,-0.47712z"></path><path d="M19.96966,21.26123h-1.4275c-0.23167,0 -0.41948,-0.18782 -0.41948,-0.41948v-0.02591c0,-0.23167 0.18782,-0.41948 0.41948,-0.41948h1.4275c0.23167,0 0.41948,0.18782 0.41948,0.41948v0.02591c0,0.23167 -0.18782,0.41948 -0.41948,0.41948z"></path></g><path d="M35.38261,32.44871c-2.25467,3.03284 -5.69244,5.13359 -9.63075,5.61841v-5.61841h9.63075z" fill="#ffd15c"></path><g fill="#000000" font-family="Roboto, sans-serif" font-weight="400" font-size="14" text-anchor="start"></g><g fill="#000000" font-family="Roboto, sans-serif" font-weight="400" font-size="14" text-anchor="start"></g><g fill="#000000" font-family="Roboto, sans-serif" font-weight="400" font-size="14" text-anchor="start"></g><g fill="#000000" font-family="Roboto, sans-serif" font-weight="400" font-size="14" text-anchor="start"></g><g fill="#000000" font-family="Roboto, sans-serif" font-weight="400" font-size="14" text-anchor="start"></g><g fill="#000000" font-family="Roboto, sans-serif" font-weight="400" font-size="14" text-anchor="start"></g><g fill="#000000" font-family="Roboto, sans-serif" font-weight="400" font-size="14" text-anchor="start"></g><g fill="#000000" font-family="Roboto, sans-serif" font-weight="400" font-size="14" text-anchor="start"></g><g fill="#000000" font-family="Roboto, sans-serif" font-weight="400" font-size="14" text-anchor="start"></g><g fill="#000000" font-family="Roboto, sans-serif" font-weight="400" font-size="14" text-anchor="start"></g><g fill="#000000" font-family="Roboto, sans-serif" font-weight="400" font-size="14" text-anchor="start"></g><g fill="#000000" font-family="Roboto, sans-serif" font-weight="400" font-size="14" text-anchor="start"></g><g fill="#000000" font-family="Roboto, sans-serif" font-weight="400" font-size="14" text-anchor="start"></g><g fill="#000000" font-family="Roboto, sans-serif" font-weight="400" font-size="14" text-anchor="start"></g><g fill="#000000" font-family="Roboto, sans-serif" font-weight="400" font-size="14" text-anchor="start"></g></g><path d="M2,24c0,-12.15026 9.84974,-22 22,-22c12.15026,0 22,9.84974 22,22c0,12.15026 -9.84974,22 -22,22c-12.15026,0 -22,-9.84974 -22,-22z" id="base 1 1 1" fill="none" stroke-width="1"></path><g id="Capa_1 1 1" fill="#000000" stroke-width="1" font-family="Roboto, sans-serif" font-weight="400" font-size="14" text-anchor="start"><g></g><g></g><g></g><g></g><g></g><g></g><g></g><g></g><g></g><g></g><g></g><g></g><g></g><g></g><g></g><g></g><g></g><g></g><g></g><g></g><g></g><g></g><g></g><g></g><g></g><g></g><g></g><g></g><g></g></g><rect x="2" y="2" width="44" height="22" fill="none" stroke-width="1"></rect><path d="M2,24v-22h44v22z" fill="none" stroke-width="1"></path><path d="M2,24v-22h44v22z" fill="none" stroke-width="1"></path><path d="M2,24v-22h44v22z" fill="none" stroke-width="1"></path><path d="M2,24v-22h44v22z" fill="none" stroke-width="1"></path></g></svg>