<svg version="1.1" xmlns="http://www.w3.org/2000/svg" xmlns:xlink="http://www.w3.org/1999/xlink" width="48" height="48"><defs><linearGradient x1="12.23187" y1="12.87377" x2="51.09895" y2="50.45708" gradientUnits="userSpaceOnUse" id="color-1"><stop offset="0.36" stop-color="#000000" stop-opacity="0.11"></stop><stop offset="1" stop-color="#000000" stop-opacity="0"></stop></linearGradient><linearGradient x1="33.625" y1="14.375" x2="43" y2="23.75" gradientUnits="userSpaceOnUse" id="color-2"><stop offset="0" stop-color="#000000" stop-opacity="0.11"></stop><stop offset="1" stop-color="#000000" stop-opacity="0"></stop></linearGradient><filter id="dropshadow-base"><feColorMatrix type="matrix" values="0 0 0 0 0  0 0 0 0 0  0 0 0 0 0  0 0 0 .8 0"></feColorMatrix> <feOffset dx="0" dy="1"></feOffset> <feGaussianBlur stdDeviation="1"></feGaussianBlur> <feComposite in="SourceGraphic"></feComposite></filter><filter id="dropshadow-banner" x="-10%" y="-10%" width="120%" height="130%"><feColorMatrix type="matrix" values="0 0 0 0 0  0 0 0 0 0  0 0 0 0 0  0 0 0 .4 0"></feColorMatrix> <feOffset dx="0" dy="1"></feOffset> <feGaussianBlur stdDeviation="0.5"></feGaussianBlur> <feComposite in="SourceGraphic"></feComposite></filter></defs><g fill="none" fill-rule="nonzero" stroke="none" stroke-width="none" stroke-linecap="butt" stroke-linejoin="miter" stroke-miterlimit="10" stroke-dasharray="" stroke-dashoffset="0" font-family="none" font-weight="none" font-size="none" text-anchor="none" style="mix-blend-mode: normal"><path d="M7,43c-1.10457,0 -2,-0.89543 -2,-2v-34c0,-1.10457 0.89543,-2 2,-2l26,0l10,10v26c0,1.10457 -0.89543,2 -2,2z" id="base 1 5 1 2" fill="#ddedf0" stroke="none" stroke-width="1"></path><path d="M12.23187,20.14861v-4.70725h0.42794v-1.6056c0,-0.5315 0.4305,-0.96199 0.96199,-0.96199h2.35533c0.26575,0 0.50624,0.10762 0.6803,0.28168l10.11558,10.11558c0.07536,0.04744 0.14967,0.0964 0.22287,0.14685l4.1601,0.67722l-0.52302,-0.52302v-4.70725h0.42794v-1.6056c0,-0.5315 0.4305,-0.96199 0.96199,-0.96199h2.35533c0.26575,0 0.50624,0.10762 0.6803,0.28168l7.9415,7.9415v16.47958c0,1.10457 -0.89543,2 -2,2h-13.45146l-10.31142,-10.31142c-1.50648,-1.50648 -2.43766,-3.58826 -2.43766,-5.88947v-4.08291z" fill="url(#color-1)" stroke="none" stroke-width="1"></path><path d="M13.51566,21.43241v-1.2838h-1.2838v-4.70725h0.42793v-1.6056c0,-0.53149 0.4305,-0.96199 0.96199,-0.96199h2.35534c0.53149,0 0.96199,0.4305 0.96199,0.96199v1.6056h0.42793v4.70725h-1.2838v1.2838zM23.12659,35.12623c-4.60241,0 -8.32713,-3.72472 -8.32713,-8.32713v-5.3667l6.78391,1.10436c0.56364,-0.16182 1.15907,-0.24849 1.77473,-0.24849c1.35062,0 2.60381,0.41713 3.63777,1.1296l4.92087,0.80107v-0.64687h-1.2838v-4.70725h0.42793v-1.6056c0,-0.53149 0.4305,-0.96199 0.96199,-0.96199h2.35534c0.53149,0 0.96199,0.4305 0.96199,0.96199v1.6056h0.42793v4.70725h-1.2838v1.2838l-1.2838,0v1.56152c0,5.28197 -4.16123,8.42599 -9.35571,8.69067c-0.16066,0.01205 -0.32298,0.01818 -0.48672,0.01818c-0.03118,0 -0.06231,-0.00022 -0.09338,-0.00067c-0.04597,0.00044 -0.09202,0.00067 -0.13813,0.00067z" fill="none" stroke="none" stroke-width="0"></path><g id="Capa_1 2"><path d="M13.51566,21.43241v-1.2838h2.56759v1.2838z" fill="#546a79" stroke="none" stroke-width="1"></path><path d="M12.23187,20.14861v-4.70725h5.13519v4.70725z" fill="#38454f" stroke="none" stroke-width="1"></path><path d="M16.93912,15.44136h-4.27932v-1.6056c0,-0.53149 0.4305,-0.96199 0.96199,-0.96199h2.35534c0.53149,0 0.96199,0.4305 0.96199,0.96199z" fill="#eeaf4b" stroke="none" stroke-width="1"></path><path d="M18.22292,29.99105c0,-2.83608 2.2991,-5.13519 5.13519,-5.13519c2.83608,0 5.13519,2.2991 5.13519,5.13519c0,2.83608 -2.2991,5.13519 -5.13519,5.13519c-2.83608,0 -5.13519,-2.2991 -5.13519,-5.13519z" fill="none" stroke="#38454f" stroke-width="2"></path><path d="M14.79946,21.43241v5.78307v-0.41638c0,4.60241 3.72472,8.32713 8.32713,8.32713c5.52375,0 10.07395,-3.18553 10.07395,-8.70885v-1.98946" fill="none" stroke="#38454f" stroke-width="2"></path><path d="M16.93912,28.70725c0,-3.54511 2.87388,-6.41898 6.41898,-6.41898c3.54511,0 6.41898,2.87388 6.41898,6.41898c0,3.54511 -2.87388,6.41898 -6.41898,6.41898c-3.54511,0 -6.41898,-2.87388 -6.41898,-6.41898z" fill="none" stroke="#38454f" stroke-width="2"></path><path d="M31.91674,24.85586v-1.2838h2.56759v1.2838z" fill="#546a79" stroke="none" stroke-width="1"></path><path d="M30.63295,23.57207v-4.70725h5.13519v4.70725z" fill="#38454f" stroke="none" stroke-width="1"></path><path d="M35.3402,18.86481h-4.27932v-1.6056c0,-0.53149 0.4305,-0.96199 0.96199,-0.96199h2.35534c0.53149,0 0.96199,0.4305 0.96199,0.96199z" fill="#eeaf4b" stroke="none" stroke-width="1"></path><g fill="#000000" stroke="none" stroke-width="1" font-family="Roboto, sans-serif" font-weight="400" font-size="14" text-anchor="start"></g><g fill="#000000" stroke="none" stroke-width="1" font-family="Roboto, sans-serif" font-weight="400" font-size="14" text-anchor="start"></g><g fill="#000000" stroke="none" stroke-width="1" font-family="Roboto, sans-serif" font-weight="400" font-size="14" text-anchor="start"></g><g fill="#000000" stroke="none" stroke-width="1" font-family="Roboto, sans-serif" font-weight="400" font-size="14" text-anchor="start"></g><g fill="#000000" stroke="none" stroke-width="1" font-family="Roboto, sans-serif" font-weight="400" font-size="14" text-anchor="start"></g><g fill="#000000" stroke="none" stroke-width="1" font-family="Roboto, sans-serif" font-weight="400" font-size="14" text-anchor="start"></g><g fill="#000000" stroke="none" stroke-width="1" font-family="Roboto, sans-serif" font-weight="400" font-size="14" text-anchor="start"></g><g fill="#000000" stroke="none" stroke-width="1" font-family="Roboto, sans-serif" font-weight="400" font-size="14" text-anchor="start"></g><g fill="#000000" stroke="none" stroke-width="1" font-family="Roboto, sans-serif" font-weight="400" font-size="14" text-anchor="start"></g><g fill="#000000" stroke="none" stroke-width="1" font-family="Roboto, sans-serif" font-weight="400" font-size="14" text-anchor="start"></g><g fill="#000000" stroke="none" stroke-width="1" font-family="Roboto, sans-serif" font-weight="400" font-size="14" text-anchor="start"></g><g fill="#000000" stroke="none" stroke-width="1" font-family="Roboto, sans-serif" font-weight="400" font-size="14" text-anchor="start"></g><g fill="#000000" stroke="none" stroke-width="1" font-family="Roboto, sans-serif" font-weight="400" font-size="14" text-anchor="start"></g><g fill="#000000" stroke="none" stroke-width="1" font-family="Roboto, sans-serif" font-weight="400" font-size="14" text-anchor="start"></g><g fill="#000000" stroke="none" stroke-width="1" font-family="Roboto, sans-serif" font-weight="400" font-size="14" text-anchor="start"></g></g><path d="M2,24c0,-12.15026 9.84974,-22 22,-22c12.15026,0 22,9.84974 22,22c0,12.15026 -9.84974,22 -22,22c-12.15026,0 -22,-9.84974 -22,-22z" id="base 1 1 1" fill="none" stroke="none" stroke-width="1"></path><g id="Capa_1 1 1" fill="#000000" stroke="none" stroke-width="1" font-family="Roboto, sans-serif" font-weight="400" font-size="14" text-anchor="start"><g></g><g></g><g></g><g></g><g></g><g></g><g></g><g></g><g></g><g></g><g></g><g></g><g></g><g></g><g></g></g><rect x="2" y="2" width="44" height="22" fill="none" stroke="none" stroke-width="1"></rect><path d="M2,24v-22h44v22z" fill="none" stroke="none" stroke-width="1"></path><path d="M2,24v-22h44v22z" fill="none" stroke="none" stroke-width="1"></path><path d="M2,24v-22h44v22z" fill="none" stroke="none" stroke-width="1"></path><path d="M2,24v-22h44v22z" fill="none" stroke="none" stroke-width="1"></path><path d="M33.625,14.375l9.375,0.625v8.75z" fill="url(#color-2)" stroke="none" stroke-width="1"></path><path d="M33,5l10,10h-8c-1,0 -2,-1 -2,-2z" fill="#fbffff" stroke="none" stroke-width="1"></path></g></svg>